<svg width="32" height="31" viewBox="0 0 32 31" fill="none" xmlns="http://www.w3.org/2000/svg">
<path d="M16 21.3125C14.8133 21.3125 13.6533 20.9716 12.6666 20.3329C11.6799 19.6942 10.9109 18.7864 10.4567 17.7244C10.0026 16.6623 9.88378 15.4936 10.1153 14.366C10.3468 13.2385 10.9182 12.2028 11.7574 11.3899C12.5965 10.5771 13.6656 10.0235 14.8295 9.79919C15.9933 9.57491 17.1997 9.69002 18.2961 10.13C19.3925 10.5699 20.3295 11.3149 20.9888 12.2708C21.6481 13.2266 22 14.3504 22 15.5C21.9983 17.0411 21.3656 18.5185 20.2407 19.6082C19.1159 20.6979 17.5908 21.3108 16 21.3125ZM16 12.2708C15.3407 12.2708 14.6963 12.4602 14.1481 12.815C13.5999 13.1699 13.1727 13.6742 12.9204 14.2643C12.6681 14.8543 12.6021 15.5036 12.7307 16.13C12.8593 16.7564 13.1768 17.3318 13.643 17.7834C14.1092 18.235 14.7031 18.5425 15.3497 18.6671C15.9963 18.7917 16.6665 18.7278 17.2756 18.4834C17.8847 18.239 18.4053 17.8251 18.7716 17.294C19.1378 16.763 19.3333 16.1387 19.3333 15.5C19.3323 14.6439 18.9808 13.8231 18.3559 13.2177C17.731 12.6124 16.8837 12.2718 16 12.2708V12.2708Z" fill="white"/>
<path d="M15.9994 28.4166C13.3623 28.4166 10.7844 27.659 8.59175 26.2397C6.3991 24.8204 4.69013 22.8031 3.68096 20.4429C2.67179 18.0827 2.40775 15.4856 2.92222 12.98C3.43669 10.4744 4.70656 8.17289 6.57126 6.36646C8.43596 4.56003 10.8117 3.32984 13.3982 2.83145C15.9846 2.33306 18.6655 2.58885 21.1018 3.56648C23.5382 4.54411 25.6205 6.19967 27.0856 8.32381C28.5507 10.4479 29.3327 12.9452 29.3327 15.4999V16.4687C29.3327 17.7533 28.8059 18.9853 27.8682 19.8937C26.9305 20.8021 25.6588 21.3124 24.3327 21.3124C23.0066 21.3124 21.7348 20.8021 20.7972 19.8937C19.8595 18.9853 19.3327 17.7533 19.3327 16.4687V10.9791C19.3327 10.6365 19.4732 10.308 19.7232 10.0657C19.9733 9.82351 20.3124 9.68742 20.666 9.68742C21.0196 9.68742 21.3588 9.82351 21.6088 10.0657C21.8589 10.308 21.9994 10.6365 21.9994 10.9791V16.4687C21.9994 17.0682 22.2452 17.6431 22.6828 18.067C23.1204 18.4909 23.7138 18.7291 24.3327 18.7291C24.9515 18.7291 25.545 18.4909 25.9826 18.067C26.4202 17.6431 26.666 17.0682 26.666 16.4687V15.4999C26.666 13.2252 25.8912 11.014 24.4618 9.2094C23.0323 7.40474 21.0282 6.10745 18.7601 5.51871C16.492 4.92997 14.0867 5.0827 11.9174 5.9532C9.74803 6.8237 7.93579 8.36332 6.76175 10.3333C5.5877 12.3033 5.11745 14.5935 5.42394 16.8487C5.73043 19.104 6.79653 21.1983 8.45689 22.8067C10.1172 24.4152 12.2791 25.448 14.6071 25.7449C16.9351 26.0418 19.2992 25.5862 21.3327 24.4489C21.4844 24.364 21.6518 24.3088 21.8255 24.2866C21.9992 24.2644 22.1757 24.2756 22.3449 24.3195C22.5141 24.3634 22.6727 24.4392 22.8117 24.5425C22.9507 24.6458 23.0673 24.7746 23.1549 24.9216C23.2425 25.0685 23.2993 25.2308 23.3221 25.3991C23.345 25.5673 23.3333 25.7383 23.2879 25.9022C23.2425 26.0661 23.1642 26.2197 23.0575 26.3543C22.9508 26.4889 22.8178 26.6018 22.666 26.6866C20.6386 27.8189 18.3396 28.4155 15.9994 28.4166V28.4166Z" fill="white"/>
</svg>
