<svg width="34" height="34" viewBox="0 0 34 34" fill="none" xmlns="http://www.w3.org/2000/svg">
<path d="M17.0007 2.95093C9.17664 2.95093 2.83398 9.29359 2.83398 17.1176C2.83398 23.3835 6.90646 28.6899 12.5455 30.5586C13.232 30.6658 13.4944 30.2524 13.4944 29.8857C13.4944 29.5492 13.4767 28.4336 13.4767 27.2471C9.91732 27.9024 8.99646 26.3794 8.71318 25.5826C8.39871 24.8076 7.90031 24.1209 7.26107 23.5816C6.76526 23.3159 6.05693 22.6607 7.24335 22.643C8.16275 22.7427 8.97579 23.2847 9.42153 24.0951C9.42292 24.0976 9.42429 24.1 9.42568 24.1025C10.2432 25.5614 12.0886 26.0813 13.5475 25.2638C13.6088 24.5436 13.9298 23.8702 14.4507 23.369C11.2986 23.0149 8.00486 21.7929 8.00486 16.3742C7.98489 14.9662 8.50446 13.604 9.45689 12.5669C9.02377 11.3432 9.07444 10.0003 9.5986 8.81274C9.5986 8.81274 10.785 8.44085 13.4944 10.2649C15.8125 9.62725 18.2597 9.62725 20.5778 10.2649C23.2871 8.42311 24.4736 8.81274 24.4736 8.81274C24.9977 10.0003 25.0483 11.3432 24.6152 12.5669C25.5705 13.6023 26.0905 14.9656 26.0673 16.3742C26.0673 21.8106 22.7559 23.0149 19.6038 23.369C20.2879 24.0623 20.6369 25.0188 20.56 25.9898C20.56 27.8846 20.5423 29.4076 20.5423 29.8857C20.5414 29.9611 20.5526 30.0363 20.5757 30.1081C20.6935 30.4748 21.0859 30.6765 21.4526 30.5597C27.0934 28.692 31.1673 23.3847 31.1673 17.1176C31.1673 9.29359 24.8247 2.95093 17.0007 2.95093Z" fill="white"/>
</svg>
