<svg width="32" height="31" viewBox="0 0 32 31" fill="none" xmlns="http://www.w3.org/2000/svg">
<path d="M16.0008 8.86743C14.6467 8.86743 13.323 9.25643 12.1971 9.98522C11.0712 10.714 10.1937 11.7499 9.67546 12.9618C9.15726 14.1738 9.02168 15.5074 9.28585 16.7939C9.55003 18.0805 10.2021 19.2624 11.1596 20.1899C12.1171 21.1175 13.337 21.7492 14.6651 22.0051C15.9932 22.261 17.3698 22.1297 18.6209 21.6277C19.8719 21.1257 20.9412 20.2756 21.6935 19.1849C22.4458 18.0941 22.8473 16.8118 22.8473 15.5C22.8474 14.629 22.6703 13.7665 22.3262 12.9618C21.9822 12.1571 21.4778 11.4259 20.8421 10.81C20.2063 10.1941 19.4516 9.70558 18.6209 9.37227C17.7902 9.03896 16.8999 8.86741 16.0008 8.86743V8.86743ZM16.0008 19.8059C15.1217 19.8059 14.2624 19.5533 13.5314 19.0802C12.8005 18.607 12.2308 17.9345 11.8944 17.1477C11.558 16.3609 11.4699 15.4952 11.6414 14.6599C11.813 13.8246 12.2363 13.0574 12.8579 12.4552C13.4795 11.853 14.2715 11.4429 15.1337 11.2768C15.9959 11.1107 16.8896 11.1959 17.7018 11.5218C18.514 11.8477 19.2082 12.3997 19.6966 13.1078C20.185 13.8159 20.4456 14.6484 20.4456 15.5C20.4457 16.0655 20.3308 16.6254 20.1074 17.1479C19.8841 17.6703 19.5567 18.145 19.1439 18.5449C18.7312 18.9447 18.2412 19.2619 17.7019 19.4783C17.1626 19.6946 16.5845 19.8059 16.0008 19.8059V19.8059Z" fill="white"/>
<path d="M29.2539 10.1746C29.2321 9.10314 29.0227 8.04301 28.6346 7.03941C28.2992 6.17772 27.7745 5.39698 27.0967 4.75128C26.4311 4.094 25.6254 3.58551 24.7358 3.26138C23.6999 2.88522 22.6055 2.68236 21.4994 2.66145C20.0778 2.59875 19.6233 2.58325 16.0024 2.58325C12.3815 2.58325 11.9267 2.5978 10.5042 2.66145C9.39817 2.68262 8.30385 2.88548 7.26788 3.26138C6.37814 3.58581 5.57211 4.09425 4.90593 4.75128C4.22708 5.39613 3.70217 6.17712 3.36806 7.03941C2.98004 8.04302 2.77064 9.10314 2.74878 10.1746C2.68306 11.5518 2.66797 11.9922 2.66797 15.4999C2.66797 19.0077 2.68306 19.4479 2.74876 20.8252C2.77062 21.8967 2.98003 22.9568 3.36806 23.9604C3.70227 24.8227 4.22716 25.6036 4.90593 26.2486C5.57244 26.9052 6.37838 27.4135 7.26788 27.7384C8.30389 28.1141 9.39818 28.317 10.5042 28.3383C11.9267 28.401 12.3804 28.4166 16.0013 28.4166C19.6222 28.4166 20.0767 28.402 21.4984 28.3383C22.6044 28.3171 23.6988 28.1143 24.7347 27.7384C25.6206 27.4066 26.4251 26.8991 27.0967 26.2485C27.7683 25.598 28.2921 24.8186 28.6346 23.9604C29.0231 22.9569 29.2325 21.8967 29.2539 20.8252C29.3186 19.4469 29.3336 19.0077 29.3336 15.4999C29.3336 11.9922 29.3186 11.5518 29.2539 10.1746ZM26.8553 20.7199C26.845 21.539 26.6898 22.3503 26.3966 23.1186C26.1747 23.6756 25.8348 24.1815 25.3989 24.6036C24.963 25.0257 24.4407 25.3547 23.8656 25.5694C23.0727 25.8542 22.2351 26.0045 21.3895 26.0138C19.984 26.0763 19.5619 26.0889 16.0012 26.0889C12.4405 26.0889 12.0196 26.0763 10.6146 26.0138C9.76898 26.0044 8.93138 25.8541 8.13845 25.5694C7.55931 25.3621 7.03532 25.032 6.6048 24.6033C6.16158 24.1871 5.82072 23.6797 5.60746 23.1186C5.31349 22.3505 5.15834 21.539 5.1488 20.7199C5.08413 19.3584 5.07126 18.9494 5.07126 15.5C5.07126 12.0506 5.08525 11.6428 5.1488 10.2801C5.15945 9.4611 5.31457 8.64987 5.60746 7.8815C5.82148 7.32046 6.16223 6.81284 6.6048 6.39577C7.03457 5.96616 7.55878 5.63592 8.13845 5.42961C8.93136 5.14486 9.76897 4.99455 10.6146 4.98527C12.02 4.92264 12.4421 4.91016 16.0012 4.91016C19.5603 4.91016 19.9829 4.92371 21.3895 4.98527C22.235 4.99559 23.0724 5.14587 23.8656 5.42961C24.4409 5.64435 24.9633 5.97348 25.3992 6.39579C25.8352 6.8181 26.1749 7.32422 26.3966 7.88151C26.6905 8.64961 26.8457 9.46102 26.8553 10.2801C26.9199 11.6428 26.9328 12.0507 26.9328 15.5C26.9328 18.9494 26.9199 19.3572 26.8553 20.7199H26.8553Z" fill="white"/>
<path d="M23.1195 7.05493H23.119C22.6947 7.05501 22.2879 7.21833 21.9879 7.50899C21.688 7.79964 21.5195 8.19381 21.5195 8.6048C21.5196 9.01579 21.6881 9.40993 21.9881 9.70053C22.2881 9.99113 22.695 10.1544 23.1193 10.1544C23.5435 10.1544 23.9504 9.99113 24.2504 9.70053C24.5504 9.40993 24.7189 9.01579 24.719 8.6048C24.719 8.19381 24.5505 7.79964 24.2506 7.50899C23.9506 7.21833 23.5438 7.05501 23.1195 7.05493Z" fill="white"/>
</svg>
