<svg width="32" height="31" viewBox="0 0 32 31" fill="none" xmlns="http://www.w3.org/2000/svg">
<path d="M6.67106 9.04178H6.63351C6.22469 9.06567 5.81517 9.00764 5.43052 8.87133C5.04588 8.73502 4.69438 8.52335 4.39797 8.24954C4.10156 7.97573 3.8666 7.64566 3.70777 7.27993C3.54894 6.91421 3.46965 6.52069 3.47485 6.12395C3.48005 5.72722 3.56963 5.33577 3.73799 4.97408C3.90635 4.61238 4.14988 4.28819 4.45337 4.02175C4.75686 3.75532 5.1138 3.55236 5.50189 3.42556C5.88998 3.29875 6.30089 3.25081 6.70895 3.28474C7.11905 3.25597 7.53085 3.30971 7.91847 3.44257C8.30609 3.57543 8.66114 3.78454 8.9613 4.05676C9.26146 4.32897 9.50024 4.65841 9.66262 5.02435C9.825 5.39029 9.90747 5.78481 9.90485 6.18312C9.90223 6.58143 9.81457 6.97491 9.64739 7.33881C9.4802 7.70271 9.23711 8.02917 8.93339 8.29766C8.62967 8.56614 8.27189 8.77085 7.88255 8.89891C7.49322 9.02698 7.08074 9.07562 6.67106 9.04178Z" fill="white"/>
<path d="M9.35677 12.9167H4.02344V28.4167H9.35677V12.9167Z" fill="white"/>
<path d="M23.3555 12.9167C22.4567 12.9191 21.5702 13.1183 20.7621 13.4993C19.954 13.8803 19.2452 14.4333 18.6888 15.117V12.9167H13.3555V28.4168H18.6888V21.3126C18.6888 20.6274 18.9698 19.9704 19.4699 19.4859C19.9699 19.0014 20.6482 18.7292 21.3555 18.7292C22.0627 18.7292 22.741 19.0014 23.2411 19.4859C23.7412 19.9704 24.0221 20.6274 24.0221 21.3126V28.4168H29.3555V18.7292C29.3555 17.9659 29.2003 17.2101 28.8987 16.5049C28.5972 15.7997 28.1553 15.1589 27.5981 14.6192C27.041 14.0795 26.3795 13.6513 25.6516 13.3592C24.9236 13.0671 24.1434 12.9167 23.3555 12.9167V12.9167Z" fill="white"/>
</svg>
