<svg width="27" height="19" viewBox="0 0 27 19" fill="none" xmlns="http://www.w3.org/2000/svg">
<path d="M25.4441 11.0833H2.04414C1.69936 11.0833 1.3687 10.9165 1.1249 10.6196C0.881104 10.3227 0.744141 9.91993 0.744141 9.5C0.744141 9.08007 0.881104 8.67735 1.1249 8.38041C1.3687 8.08348 1.69936 7.91667 2.04414 7.91667H25.4441C25.7889 7.91667 26.1196 8.08348 26.3634 8.38041C26.6072 8.67735 26.7441 9.08007 26.7441 9.5C26.7441 9.91993 26.6072 10.3227 26.3634 10.6196C26.1196 10.9165 25.7889 11.0833 25.4441 11.0833ZM25.4441 19H2.04414C1.69936 19 1.3687 18.8332 1.1249 18.5363C0.881104 18.2393 0.744141 17.8366 0.744141 17.4167C0.744141 16.9967 0.881104 16.594 1.1249 16.2971C1.3687 16.0001 1.69936 15.8333 2.04414 15.8333H25.4441C25.7889 15.8333 26.1196 16.0001 26.3634 16.2971C26.6072 16.594 26.7441 16.9967 26.7441 17.4167C26.7441 17.8366 26.6072 18.2393 26.3634 18.5363C26.1196 18.8332 25.7889 19 25.4441 19ZM25.4441 3.16667H2.04414C1.69936 3.16667 1.3687 2.99985 1.1249 2.70292C0.881104 2.40599 0.744141 2.00326 0.744141 1.58333C0.744141 1.16341 0.881104 0.76068 1.1249 0.463748C1.3687 0.166815 1.69936 0 2.04414 0H25.4441C25.7889 0 26.1196 0.166815 26.3634 0.463748C26.6072 0.76068 26.7441 1.16341 26.7441 1.58333C26.7441 2.00326 26.6072 2.40599 26.3634 2.70292C26.1196 2.99985 25.7889 3.16667 25.4441 3.16667Z" fill="white"/>
</svg>
