<svg width="450" height="602" viewBox="0 0 450 602" fill="none" xmlns="http://www.w3.org/2000/svg">
<mask id="path-1-inside-1_276_9173" fill="white">
<path d="M388.579 0.26689C428.429 60.9156 449.611 129.822 449.995 200.056C450.379 270.291 429.951 339.377 390.766 400.367C351.582 461.357 295.021 512.101 226.774 547.495C158.526 582.89 80.9964 601.687 1.98256 601.996L3.05176e-05 202L388.579 0.26689Z"/>
</mask>
<path d="M388.579 0.26689C428.429 60.9156 449.611 129.822 449.995 200.056C450.379 270.291 429.951 339.377 390.766 400.367C351.582 461.357 295.021 512.101 226.774 547.495C158.526 582.89 80.9964 601.687 1.98256 601.996L3.05176e-05 202L388.579 0.26689Z" stroke="url(#paint0_linear_276_9173)" stroke-width="120" mask="url(#path-1-inside-1_276_9173)"/>
<defs>
<linearGradient id="paint0_linear_276_9173" x1="450" y1="327" x2="-39.9842" y2="361.768" gradientUnits="userSpaceOnUse">
<stop stop-color="#24C4E8"/>
<stop offset="1" stop-color="#75F760" stop-opacity="0.83"/>
</linearGradient>
</defs>
</svg>
